# xmcd
#
# Track frame offsets:
#	150
#	13897
#	23077
#	34817
#	53457
#	64415
#	80310
#	99742
#	117445
#	133870
#	145207
#	157040
#	172860
#	187947
#	199025
#	212240
#
# Disc length: 3013 seconds
#
# Revision: 0
# Processed by: cddbd v1.5.2PL0 Copyright (c) Steve Scherf et al.
# Submitted via: EasyCDDAExtractor 11.1.0.1
#
DISCID=de0bc310
DTITLE=Various Artist - Nashville Music Express  20
DYEAR=1900
DGENRE=country
TTITLE0=Billy Joe Burnette - A bottle of wine and Patsy Cline
TTITLE1=Gene Watson - All hat no cattle
TTITLE2=Bill Young - Brand new old friends
TTITLE3=Cortney Tackett - Criminal
TTITLE4=Donald Wesley Nuzum - Dream baby Jean
TTITLE5=Elizabeth Wheeler - Faded love
TTITLE6=Amanda Collins - Higher faith
TTITLE7=Savannah Sharp - I give you this heart
TTITLE8=Michael Goodman - I wanna merry you
TTITLE9=Joe Bill Culp - It all happened in Memphis
TTITLE10=Miranda Sowards - Liferime of love
TTITLE11=Denise Hall - Open arms
TTITLE12=Scott Landoll - Rock and roll music
TTITLE13=Johnny Eagle - Pull the trigger
TTITLE14=Clinton Gregory - Surrender
TTITLE15=Rebecca Payton - Take it back
EXTD=
EXTT0=
EXTT1=
EXTT2=
EXTT3=
EXTT4=
EXTT5=
EXTT6=
EXTT7=
EXTT8=
EXTT9=
EXTT10=
EXTT11=
EXTT12=
EXTT13=
EXTT14=
EXTT15=
PLAYORDER=
